<?xml version="1.0" encoding="utf-8"?>
<!-- Generator: Adobe Illustrator 14.0.0, SVG Export Plug-In . SVG Version: 6.00 Build 43363)  -->
<!DOCTYPE svg PUBLIC "-//W3C//DTD SVG 1.1//EN" "http://www.w3.org/Graphics/SVG/1.1/DTD/svg11.dtd">
<svg version="1.1" id="Ebene_1" xmlns="http://www.w3.org/2000/svg" xmlns:xlink="http://www.w3.org/1999/xlink" x="0px" y="0px"
	 width="800px" height="600px" viewBox="0 0 800 600" enable-background="new 0 0 800 600" xml:space="preserve">
<g>
	<g>
		<path fill-rule="evenodd" clip-rule="evenodd" d="M264.081,164.002c0.387-1.458,2.068-4.878,4.525-5.495
			c1.754-0.44,5.144-0.434,8.081-0.97c4.126-0.753,6.274-0.435,10.667,0.97c2.229,0.713,5.497,2.261,7.111,1.939
			c3.376-0.672,2.519-5,1.616-7.434c4.169,0.102,8.124-1.179,10.99,0c2.533,1.042,4.519,5.252,6.141,7.757
			c2.101,3.244,3.328,6.484,4.849,9.05c3.684-0.354,5.088,1.733,7.758,0c-0.293-7.032-5.792-11.577-4.849-17.777
			c4.748,0.374,9.846,6.065,13.576,1.616c0.716-1.724-0.817-1.885-0.646-3.879c1.929-0.713,4.739-0.174,6.788,0
			c2.51,1.849,2.877,5.689,5.818,6.788c1.433,0.535,4.232,0.457,5.495-0.97c2.131-2.407-0.678-5.015-0.323-8.081
			c0.454-3.929,9.266-7.99,12.283-10.344c2.195-1.711,5.028-4.705,7.758-7.434c4.345-4.345,8.263-8.807,13.576-3.232
			c1.884,1.977,2.635,5.656,6.142,5.818c3.539,0.164,5.394-3.719,3.555-7.435c-1.427-2.884-5.032-2.988-5.171-5.818
			c-0.086-1.744,2.288-4.149,3.556-5.172c5.034-4.061,12.775-8.525,17.777-11.313c1.964,1.268,3.242,3.223,6.465,3.232
			c1.021,3.616,4.164,5.795,7.435,3.879c3.278-1.92,0.592-6.633,2.263-10.343c2.76-0.829,3.803-2.502,6.787-1.939
			c2.61,0.492,3.317,3.796,5.495,3.879c3.718,0.141,4.528-3.477,4.525-8.081c2.734-1.356,5.618-1.697,8.728-0.97
			c1.586,0.371,2.647,1.643,4.202,1.616c1.251-0.021,2.228-1.172,3.556-1.293c3.612-0.328,11.234,2.901,15.191,3.879
			c14.395,3.558,29.271,10.904,42.344,14.869c0.771,0.738,1.11,1.906,1.616,2.909c1.316,1.621,4.416,3.484,6.465,6.788
			c1.386,2.236,1.919,5.805,4.201,6.141c1.852,0.272,3.548-1.443,4.849-2.909c0.162-2.101-1.218-2.66-1.293-4.525
			c6.553,1.42,10.833,5.114,16.485,7.434c0.769,0.955,1.171,2.277,1.939,3.232c1.719,0.651,3.528,1.212,5.172,1.939
			c2.152,5.315-2.084,17.188,3.879,17.778c6.44,0.637,4.014-9.606,4.848-14.869c4.654,0.733,7.307,3.468,11.313,4.848
			c-0.247,5.125-0.938,11.385,4.849,10.344c2.638-0.475,2.845-3.146,3.879-5.818c8.201,2.465,15.173,6.16,22.949,9.051
			c2.311,3.082,0.941,7.768-0.323,12.606c-1.152,4.41-5.081,12.72,2.586,11.636c2.696-0.381,2.61-2.474,4.202-5.172
			c1.944-3.296,6.165-8.577,6.788-12.606c14.991,0.343,30.474,4.245,46.545,3.556c-0.813,2.31-3.632,2.538-5.495,3.556
			c-5.177,2.828-10.916,6.648-16.808,9.374c-2.363-0.7-2.147-2.561-4.525-2.586c-3.34-0.036-4.44,3.698-4.849,7.435
			c-1.977,0.394-3.11,1.63-5.495,1.616c1.478-5.026-1.531-9.049-5.171-8.081c-2.367,0.63-2.614,7.104-4.525,9.374
			c-3.938,4.673-7.93,2.006-14.869,2.585c-1.817-1.572-4.542-4.281-7.111-3.878c-4.073,0.639-4.657,13.923-10.989,10.99
			c-1.086-2.655,0.958-3.943,1.616-5.818c-11.54-3.421-12.063,12.376-25.859,8.728c-6.512-4.233,3.869-21.337-4.524-22.303
			c-5.003-0.576-3.56,4.674-4.849,8.728c-1.473,4.628-4.094,7.395-6.465,10.02c-6.902-0.391-11.729-1.516-16.809-1.293
			c-2.009,0.088-4.267,1.025-6.464,0.646c-1.61-0.278-6.528-3.549-8.081-4.849c-2.438-2.04-6.602-8.826-7.758-12.606
			c-1.106-3.616-0.592-8.873-3.556-9.374c-1.733-0.293-4.179,2.019-4.525,3.878c-0.9,4.84,2.804,16.386,1.293,23.596
			c-0.831,1.189-2.309,3.168-3.879,4.202c-0.302,0.199-0.984-0.192-1.293,0c-0.729,0.454-0.943,0.745-2.585,1.293
			c-2.812,0.938-6.119,3.088-9.051,4.525c-4.458,2.185-7.444,6.043-12.606,5.172c-2.883-0.486-4.822-3.081-7.758-3.556
			c-2.203-5.225-4.252-8.735-6.787-14.545c-0.892-2.042-2.335-4.379-2.586-5.818c-0.186-1.066,0.379-2.128,0.323-3.232
			c-0.231-4.587-4.38-10.391-5.172-15.838c-0.165-1.133,0.242-2.309,0-3.232c-0.487-1.859-2.35-3.277-2.909-5.172
			c-1.385-4.689-1.149-10.647-2.263-15.515c-0.766-3.346-2.784-5.963-4.525-8.727c-3.039-1.204-7.199-1.359-8.404,1.616
			c4.13,7.756,2.151,19.974,6.142,28.121c3.728,7.063,7.77,17.188,10.667,26.182c1.08,3.353,0.985,6.898,1.939,10.344
			c1.005,3.628,3.547,7.151,5.172,10.99c1.324,3.128,2.789,8.983,1.939,12.283c-0.379,1.47-4.08,4.919-5.818,6.465
			c-2.146,1.908-5.211,3.333-7.111,4.848c-2.004,1.597-3.106,4.064-6.142,4.525c0.075-4.843-4.864-8.701-8.727-4.849
			c-0.023,3.904,1.443,8.035,0.97,11.313c-0.151,2.111-2.507,2.019-3.232,3.556c-4.709,0.25-6.957-1.167-9.374-3.232
			c-1.069-0.914-2.098-1.282-2.909-2.263c-2.382-2.877-3.5-9.839-5.172-14.222c-4.465-11.709-8.133-23.529-14.869-33.616
			c-1.857-2.782-3.325-6.764-7.111-5.818c-5.002,1.25,0.365,8.313,1.939,11.637c8.003,16.888,16.675,35.536,17.131,60.121
			c-1.259,2.08-3.494,1.725-5.818,2.586c-2.31,0.856-4.686,3.466-7.434,3.555c-5.081,0.165-15.455-10.078-14.222,2.586
			c-0.517,0.736-1.538-0.789-2.263-0.646c-0.335,0.066-0.785,1.363-1.293,1.616c-1.016,0.507-3.006,0.333-3.555,0.646
			c-1.736,0.99-2.122,2.779-2.586,4.849c-3.599-0.117-6.42,1.672-9.374,1.293c-4.377-0.562-11.702-10.918-13.576-15.192
			c-1.506-3.435-2.154-7.162-5.818-8.404c-1.83-7.867-3.79-15.604-8.728-20.364c1.011-7.021-4.371-15.339-9.697-9.05
			c1.609,11.431,3.247,21.738,8.081,30.384c0.65,1.163,1.825,1.835,2.586,2.909c3.998,5.641,5.981,12.724,6.788,20.687
			c-0.778,0.622-1.073,1.729-1.939,2.263c-10.458,0.86-18.95-3.117-26.182-7.111c-4.186-2.312-10.681-10.698-12.929-15.515
			c-0.626-1.341-0.6-2.883-1.293-4.202c-2.228-4.244-7.18-7.034-7.757-13.252c-1.133-0.459-2.188,1.593-3.879,1.616
			c-3.377,20.768,13.992,24.76,14.222,40.727c0.083,5.771-4.882,5.982-9.374,8.728c-2.132,1.303-5.062,4.334-7.435,4.525
			c-3.183,0.255-7.593-3.442-10.667-5.495c-3.827-2.555-7.16-4.319-9.697-6.465c-5.543-4.688-9.472-13.254-14.545-20.363
			c-2.385-3.342-5.475-6.4-7.757-10.021c-1.242-1.969-2.045-4-3.232-5.818c-1.191-1.825-2.89-3.311-3.879-4.849
			c-1.154-1.795-1.439-4.528-2.909-5.172c-2.406-1.054-6.792,1.075-7.111,3.556c-0.542,4.211,6.281,7.208,8.404,10.02
			c2.304,3.052,3.593,7.071,5.818,10.344c1.048,1.541,2.118,3.272,3.232,4.848c2.1,2.971,2.895,4.336,4.525,8.081
			c1.997,4.587,6.712,7.059,9.05,11.313c0.88,1.602,1.167,4.152,1.939,6.142c2.444,6.293,5.69,10.528,3.556,18.748
			c-4.058,2.583-7.001-0.467-10.021-2.586c-2.771-1.945-6.09-4.145-7.757-6.465c-0.835-1.161-0.823-2.999-1.939-3.556
			c-2.462-1.227-4.785,0.865-7.435,1.293c1.618,2.693,0.868,4.265,1.616,7.111c1.017,3.867,5.183,9.05,6.465,12.93
			c0.643,1.945,1.65,5.245,1.293,6.787c-0.386,1.667-7.238,6.527-8.728,7.111c-4.083,1.603-10.5-0.72-13.576-2.586
			c-4.517-2.741-8.124-11.695-13.252-3.879c2.958,6.632,9.217,9.961,14.869,13.899c-1.4,2.667-4.207,4.849-6.788,6.465
			c-2.004,1.255-5.257,2.44-8.081,3.556c-4.859,1.918-8.9,5.004-15.192,3.555c-2.692-0.619-5.93-1.993-9.051-3.231
			c-2.827-1.122-6.504-3.771-8.727-3.556c-2.317,0.223-4.087,2.926-3.879,5.172c0.237,2.559,3.125,2.609,2.909,4.848
			c-5.873,1.155-15.326-2.188-14.545,6.788c-9.244-1.901-21.028,0.819-15.515,9.697c-2.295,3.415-8.049,3.372-9.05,8.081
			c-11.969,4.779-24.902,15.576-42.021,10.02c1.862-3.501,9.538-1.309,13.576-2.586c2.068-0.654,3.476-3.678,2.909-5.817
			c-0.779-2.942-3.999-1.656-7.111-2.263c0.661-1.95,2.349-3.081,4.202-4.849c1.236-1.18,3.486-3.714,5.172-3.879
			c2.044-0.2,4.377,1.934,6.465,1.616c3.986-0.606,4.323-6.818-0.646-8.081c0.984-2.845,3.429-4.84,5.171-7.111
			c5.209-6.789,10.245-14.171,14.869-21.979c5.685-3.064,8.488-8.452,18.748-7.758c-0.86-1.496-0.841-2.938-0.97-4.525
			c-4.434-2.959-5.931-3.758-3.232-9.373c0.822-1.711,1.876-2.98,2.263-4.525c8.948-5.948,17.552,4.798,24.243,3.556
			c1.901-0.354,3.502-2.026,3.556-3.879c0.132-4.592-7.416-6.138-10.667-9.051c-1.233-1.105-1.743-2.664-3.232-3.556
			c-3.718-7.077,2.675-16.671,5.172-21.979c2.035-4.327,2.677-8.73,7.435-9.051c2.946-0.198,5.218,2.164,8.404,2.909
			c1.031-0.492,3.896-2.152,3.556-4.202c-0.361-2.175-6.679-3.719-7.111-7.757c-0.482-4.513,2.694-8.585,4.849-11.313
			c2.17,1.53,5.115,5.982,8.081,1.616c-0.001-4.469-2.496-9.641-1.293-16.162c0.656-3.556,3.58-7.423,5.495-10.344
			c5.249-8.004,11.116-19.121,17.455-27.798c2.907-3.979,5.94-8.114,10.021-12.606c2.86-3.15,8.802-10.254,11.636-10.99
			c0.188-0.049,6.104-0.332,6.141-0.323c5.293,1.25,4.213,14.46,8.728,16.485c1.856,3.236,1.214,10.351,4.849,10.99
			c1.658,0.292,3.516-1.255,3.878-2.909c0.993-4.526-3.338-9.289-4.525-15.838C261.052,173.182,261.273,165.445,264.081,164.002z"/>
		<path fill-rule="evenodd" clip-rule="evenodd" d="M659.394,190.507c-2.055,4.625-5.317,8.042-6.787,13.252
			c-2.553,1.017-3.105,4.12-5.495,5.495c-1.972,1.135-4.63,0.731-6.465,2.586c-0.729,4.418,3.515,7.087,1.293,13.252
			c-2.216-0.529-9.084-3.668-9.697,0.97c-0.476,3.605,6.629,6.595,6.788,11.959c0.108,3.663-3.378,7.353-5.172,10.021
			c-1.023,1.522-1.231,3.521-1.939,4.525c-1.558,2.21-4.416,2.493-4.525,4.849c-0.107,2.342,3.042,3.671,4.849,5.495
			c-1.231,2.539-2.349,5.193-3.556,7.757c-4.34-0.616-8.225-1.688-11.636-3.232c-2.349,1.005-3.707,4.497-2.909,7.435
			c0.813,2.999,6.794,4.593,8.728,8.081c4.496,8.111,1.161,16.263-0.97,26.182c-2.91-2.441-5.331-6.765-9.051-10.667
			c-1.701-1.785-3.492-3.349-5.172-4.848c-1.925-1.718-3.91-2.474-5.818-3.879c-1.587-1.169-2.725-3.336-4.849-3.556
			c-2.24-0.231-5.939,1.736-5.817,4.202c0.159,3.236,4.599,3.251,6.787,5.172c7.156,4.432,11.585,11.637,14.223,21.98
			c1.685,6.604,5.457,11.023,1.939,16.808c-1.648-1.488-2.972-4.794-6.465-4.525c-9.075,0.699,6.579,16.829,0.646,21.657
			c-2.334-0.021-4.606-4.724-8.404-4.525c-1.426,0.074-2.881,0.659-3.232,2.263c-0.82,3.74,3.13,3.307,4.525,6.464
			c2.998,6.783-2.277,17.477-5.818,23.92c-7.302,13.291-16.703,25.896-26.182,36.849c-2.496,2.885-4.67,7.326-8.081,7.757
			c-4.462,0.563-8.024-2.174-8.08-5.817c-4.699-4.675-7.158-11.59-10.344-17.778c-2.295-0.578-5.502-1.165-6.465,0.97
			c-0.176,2.098,1.604,3.51,1.939,5.172c0.419,2.078-0.269,3.721,0.323,5.495c1.226,3.669,6.355,5.382,4.525,11.313
			c-0.438,1.824-2.541,1.984-3.556,3.232c0.734,4.007,2.437,7.045,5.172,9.051c-3.336,2.913-7.95,4.548-11.637,7.111
			c-4.174-0.457-3.481-6.542-7.11-6.788c-1.39-0.094-2.959,0.91-3.232,2.263c-0.319,1.578,1.31,2.266,1.616,4.202
			c0.401,2.535-0.569,9.945-2.586,12.282c-2.899,3.359-6.07,0.2-6.788,5.818c-15.93,9.448-35.929,12.933-54.626,19.718
			c-3.428-0.857-5.593-3.263-7.435-6.788c-1.856-3.554-4.299-7.761-7.111-7.435c-3.717,0.431-2.799,6.757-1.616,9.374
			c-1.298,3.873-2.133,8.21-5.172,10.343c-5.66,1.82-15.228,2.257-20.687,0.323c-1.8-1.959-1.872-5.425-2.586-9.373
			c-0.966-5.342-3.574-11.146-4.202-15.839c-0.268-2.003,0.268-3.472-0.323-4.849c-0.358-0.835-2.877-3.353-4.849-2.586
			c-3.46,1.347,1.393,5.771-0.646,8.404c3.069,7.755,1.551,18.881,0.646,28.121c-4.665,2.685-10.821,2.29-16.484,2.909
			c-2.243,0.245-4.289,1.43-6.465,1.616c-6.393,0.55-15.928,0.083-24.242,1.293c-4.092-2.387-4.43-8.232-5.818-13.575
			c-0.367-1.411-1.597-2.731-1.939-4.202c-1.021-4.386,0.948-12.94-4.849-12.283c-4.449,0.505-3.088,6.743-3.232,11.637
			c-0.199,6.75-2.094,13.137-4.202,17.131c-4.771,0.052-6.931-1.293-10.02-3.556c-3.36-2.461-6.599-5.266-6.142-11.313
			c-5.583-6.16-3.587-20.893-4.849-30.384c-0.966-0.65-3.049-0.184-4.525-0.323c-0.831,1.323-1.821,2.487-2.585,3.878
			c-1.23,11.779,2.486,25.883-2.909,34.586c-2.173-1.49-5.396-1.931-6.465-4.525c-4.163,1.316-5.884-0.522-9.05-1.615
			c-1.723-0.596-3.816-0.371-5.172-1.293c-6.188-4.209-2.584-19.143-8.404-20.364c-2.293-0.481-4.636,0.958-5.172,1.939
			c-2.124,3.888,3.208,8.805,1.616,12.283c-3.88-1.184-6.125-4.003-9.374-5.818c-5.841-1.7-9.378-5.706-14.545-8.081
			c0.043-0.797,0.049-1.558-0.323-1.939c-1.236-1.615-4.495-3.712-6.464-6.465c-2.192-3.063-3.838-6.393-8.728-2.585
			c-6.956-5.865-15.694-9.949-23.919-14.546c-1.711-5.715,4.693-6.542,4.202-10.99c-0.123-1.11-1.029-2.275-1.939-2.586
			c-5.438-1.85-5.225,5.074-9.697,5.818c-3.06,0.51-4.167-1.489-6.788-3.232c0.967-3.071,6.072-7.105,1.939-10.343
			c-6.501-0.33-9.224,9.488-15.838,2.909c4.661-6.921-4.565-8.305-8.728-4.202c-3.549-1.3-8.963-0.733-11.959-2.586
			c-0.794-1.37,0.001-2.405,0.646-3.232c-0.541-1.435-3.566-2.795-4.202-5.172c-2.567,0.159-4.554,3.132-7.435,3.879
			c-3.144,0.815-7.785-0.202-11.636,0.646c-1.334,0.294-2.666,1.476-3.879,1.616c-4.332,0.503-8.631-2.297-12.606-2.263
			c4.073-2.805,9.192-3.771,13.899-5.495c4.755-1.741,9.045-4.628,13.899-5.818c5.279,7.817,11.512-2.735,17.454-5.172
			c2.254-0.924,4.297-0.978,6.788-1.616c-0.475,3.67,0.899,9.778,5.495,6.142c1.242-0.982,1.405-3.207,2.586-4.849
			c2.912-4.047,8.201-6.049,11.313-7.434c1.337-1.788,1.909-4.341,5.172-4.202c-0.802,3.866-5.175,7.126-3.556,11.313
			c1.317,0.195,2.257-0.757,3.556-1.292c1.25-0.517,3.189-0.679,4.202-1.293c0.978-0.594,1.459-2.056,2.586-3.232
			c1.646-1.721,4.35-3.66,6.788-5.818c2.31-2.045,5.483-3.488,7.111-5.172c1.004-1.038,1.287-2.598,2.263-3.556
			c2.238-2.196,5.648-3.162,8.404-4.849c2.711-1.659,5.095-4.145,8.404-4.525c-1.901,7.475-5.992,14.964-8.404,22.304
			c-0.83,2.523-2.357,6.422-0.646,9.05c3.349-3.957,4.27-9.117,6.464-13.575c1.897-3.854,6.331-8.95,9.697-12.93
			c2.411-2.851,5.196-4.5,8.081-6.788c5.218-0.378,9.485-7.625,14.222-2.585c4.011,0.582,11.657,1.043,12.606,5.494
			c1.031,4.834-3.937,7.93-4.525,12.93c-0.14,1.191,0.442,2.481,0.323,3.556c-0.331,2.986-2.034,5.513-2.263,9.697
			c-0.163,2.972,0.154,6.516,0,10.02c-0.327,7.429-0.809,12.765,0.323,17.778c1.233,5.461,1.762,18.541,7.434,11.313
			c-2.521-15.559-1.766-33.115,3.232-45.898c2.346-6.001,2.092-11.713,6.142-15.516c3.278,0.513,5.492-2.171,8.404-2.586
			c3.141-0.447,7.035,1.187,10.344,1.939c3.368,0.768,6.472,1.741,9.05,2.909c3.234,14.306-0.991,29.051-0.97,41.697
			c1.634,2.514,5.408,1.78,6.788-0.97c0.823-1.641,0.625-4.523,0.97-6.788c0.568-3.735,1.681-7.881,2.262-11.637
			c0.756-4.882-0.083-11.666,1.939-15.515c0.909-1.729,7.26-4.824,9.374-5.172c4.168-0.685,10.284-0.27,12.929,2.586
			c1.195,4.466-0.975,7.97-0.646,12.606c1.585,0.179,4-1.6,7.111-0.97c1.152-2.074,3.945-2.026,4.525-4.202
			c0.734-2.755-2.68-5.938-0.646-9.051c5.668-3.773,14.817-3.055,23.273-5.172c2.768-0.692,5.721-2.555,9.697-1.616
			c1.028,1.926,3.203,2.041,4.202,5.172c1.456,4.561-0.562,10.297,2.263,12.283c1.215,0.854,4.506,0.748,6.142-0.646
			c0.818-5.774-3.066-9.029-1.939-14.223c0.539-2.479,6.187-6.681,8.404-8.081c4.155-2.623,10.113-3.719,14.546-0.323
			c0.717,0.55,1.817,2.313,2.908,3.556c1.1,1.252,2.636,2.383,3.232,3.232c1.73,2.462,2.456,6.363,4.525,9.697
			c1.82,2.932,3.79,5.764,5.495,8.728c3.767,6.543,6.233,13.566,9.051,19.07c1.195,2.337,2.992,3.995,3.556,7.111
			c1.583,0.489,2.248,2.838,4.525,1.939c3.74-1.477,0.018-9.489-0.646-11.313c-0.591-1.62-0.745-3.609-1.293-5.172
			c-2.119-6.038-7.946-13.242-9.051-20.04c-1.544-1.688-2.793-3.672-4.849-4.849c-3.739-8.732-3.094-20.164,3.879-25.858
			c2.69-2.197,6.536-4.478,10.344-6.465c3.337-1.742,8.273-4.677,11.313-5.172c6.088-0.991,11.543,5.063,16.485,0.646
			c0.645-5.287-2.374-6.139-1.939-10.02c0.373-3.336,4.878-6.251,7.111-8.081c5.304-4.35,10.251-8.135,20.687-6.788
			c1.506,0.194,2.852,1.155,4.525,1.616c1.414,0.39,3.183,0.187,4.525,0.646c1.472,0.505,2.399,1.779,3.879,2.263
			c1.215,0.397,2.799,0.119,4.524,0.646c2.557,0.78,5.826,2.884,8.728,4.849c2.819,1.909,6.206,3.39,8.081,5.172
			c2.247,2.136,4.546,4.318,6.788,6.464c2.254,2.157,5.57,9.047,10.02,6.788c6.243-3.169-5.183-10.842-4.202-14.222
			c-2.792-3.72-6.124-5.861-10.666-8.404c-2.992-1.676-5.411-3.89-8.728-5.495c-1.176-0.569-2.769-0.521-3.879-1.293
			c-0.974-0.677-1.483-2.462-2.586-3.232c-3.188-2.229-8.304-1.807-11.313-4.525c-2.125-1.92-7.145-9.042-7.111-12.93
			c0.03-3.533,2.68-4.767,3.232-8.404c1.185-0.539,2.334-1.113,3.556-1.616c7.313,1.892,14.227,2.649,20.687,4.849
			c4.05,1.379,6.534,4.201,11.637,3.556c6.355-6.413-0.681-6.958-6.788-10.667c-0.931-0.564-1.459-1.838-2.263-2.263
			c-1.014-0.535-2.164-0.251-2.909-0.646c-3.349-1.776-5.424-4.655-7.758-5.818c0.087-1.573,0.31-1.812,0.323-3.879
			c3.66,0.43,7.501,1.187,9.374-1.293c0.159-4.792-2.236-7.03-7.111-6.788c1.412-4.022,0.894-10.795,5.172-11.636
			c3.5-0.688,11.529,5.362,12.606-0.646c0.751-4.191-5.055-4.517-5.818-7.434c-1.248-4.768,7.246-11.573,10.343-13.252
			c6.119-3.318,11.971-3.666,19.071-5.495c1.128,1.208,2.342,4.174,4.525,4.202c2.751,0.035,7.053-5.433,10.989-5.495
			c1.886-0.03,3.419,1.563,5.495,2.263c5.153,1.735,9.148,5.116,15.192,4.202c2.595-3.027-0.241-6.708-1.616-8.728
			c0.813-0.911,1.08-2.368,2.263-2.909c7.769-0.227,8.72,6.364,14.545,8.081c1.408-1.342,2.723-3.127,2.586-4.849
			c-0.194-2.456-3.242-2.681-3.232-5.172c4.942-0.168,9.799-0.535,10.99-5.171c3.063-1.466,6.005-0.967,8.728-2.263
			C655.949,194.888,655.711,189.858,659.394,190.507z M470.303,334.346c-0.14,1.972,1.016,2.648,0.97,4.525
			c6.728,1.081,7.441,17.886,13.253,17.131c2.207-0.286,2.525-3.334,3.879-5.171C485.477,342.823,481.697,329.68,470.303,334.346z"
			/>
		<path fill-rule="evenodd" clip-rule="evenodd" fill="#FFFFFF" d="M488.404,350.831c-1.354,1.837-1.672,4.885-3.879,5.171
			c-5.812,0.755-6.525-16.05-13.253-17.131c0.046-1.877-1.109-2.554-0.97-4.525C481.697,329.68,485.477,342.823,488.404,350.831z"/>
		<path fill-rule="evenodd" clip-rule="evenodd" fill="#FFFFFF" d="M0.323,1.093c266.25,0,532.45,0,798.707,0
			c0.323,0,0.646,0,0.97,0c0,199.121,0,398.208,0,597.333c-0.216,0-0.431,0-0.646,0c-266.109,0-532.278,0-798.384,0
			c-0.323,0-0.646,0-0.97,0C0,399.646,0,200.841,0,2.063C-0.028,1.604-0.053,1.147,0.323,1.093z M262.142,179.194
			c1.187,6.549,5.518,11.312,4.525,15.838c-0.363,1.654-2.22,3.201-3.878,2.909c-3.635-0.64-2.993-7.754-4.849-10.99
			c-4.514-2.024-3.434-15.235-8.728-16.485c-0.037-0.009-5.953,0.274-6.141,0.323c-2.834,0.736-8.776,7.84-11.636,10.99
			c-4.08,4.492-7.114,8.627-10.021,12.606c-6.339,8.677-12.206,19.794-17.455,27.798c-1.915,2.92-4.839,6.788-5.495,10.344
			c-1.203,6.521,1.292,11.692,1.293,16.162c-2.966,4.366-5.911-0.086-8.081-1.616c-2.154,2.728-5.331,6.8-4.849,11.313
			c0.432,4.038,6.75,5.582,7.111,7.757c0.34,2.05-2.524,3.71-3.556,4.202c-3.186-0.745-5.458-3.107-8.404-2.909
			c-4.758,0.321-5.4,4.724-7.435,9.051c-2.497,5.309-8.89,14.902-5.172,21.979c1.49,0.892,1.999,2.45,3.232,3.556
			c3.251,2.913,10.799,4.459,10.667,9.051c-0.054,1.853-1.655,3.525-3.556,3.879c-6.691,1.242-15.294-9.504-24.243-3.556
			c-0.387,1.545-1.44,2.814-2.263,4.525c-2.698,5.615-1.202,6.414,3.232,9.373c0.128,1.588,0.11,3.029,0.97,4.525
			c-10.26-0.694-13.063,4.693-18.748,7.758c-4.624,7.809-9.659,15.19-14.869,21.979c-1.743,2.271-4.187,4.267-5.171,7.111
			c4.969,1.263,4.633,7.475,0.646,8.081c-2.087,0.317-4.421-1.816-6.465-1.616c-1.686,0.165-3.936,2.699-5.172,3.879
			c-1.853,1.768-3.541,2.898-4.202,4.849c3.112,0.606,6.332-0.68,7.111,2.263c0.567,2.14-0.841,5.163-2.909,5.817
			c-4.038,1.277-11.713-0.915-13.576,2.586c17.118,5.557,30.052-5.24,42.021-10.02c1.001-4.709,6.755-4.666,9.05-8.081
			c-5.513-8.878,6.271-11.599,15.515-9.697c-0.781-8.977,8.672-5.633,14.545-6.788c0.216-2.238-2.672-2.289-2.909-4.848
			c-0.208-2.246,1.562-4.949,3.879-5.172c2.223-0.215,5.9,2.434,8.727,3.556c3.121,1.238,6.358,2.612,9.051,3.231
			c6.292,1.449,10.333-1.637,15.192-3.555c2.823-1.115,6.077-2.301,8.081-3.556c2.582-1.616,5.388-3.798,6.788-6.465
			c-5.651-3.938-11.911-7.268-14.869-13.899c5.128-7.816,8.736,1.138,13.252,3.879c3.076,1.866,9.492,4.188,13.576,2.586
			c1.49-0.584,8.341-5.444,8.728-7.111c0.357-1.542-0.65-4.842-1.293-6.787c-1.282-3.88-5.448-9.063-6.465-12.93
			c-0.749-2.847,0.002-4.418-1.616-7.111c2.649-0.428,4.973-2.52,7.435-1.293c1.116,0.557,1.104,2.395,1.939,3.556
			c1.667,2.32,4.986,4.52,7.757,6.465c3.019,2.119,5.963,5.169,10.021,2.586c2.135-8.22-1.111-12.454-3.556-18.748
			c-0.772-1.989-1.06-4.54-1.939-6.142c-2.338-4.254-7.053-6.726-9.05-11.313c-1.63-3.745-2.426-5.11-4.525-8.081
			c-1.114-1.576-2.185-3.308-3.232-4.848c-2.226-3.273-3.514-7.292-5.818-10.344c-2.123-2.812-8.946-5.809-8.404-10.02
			c0.319-2.48,4.705-4.61,7.111-3.556c1.47,0.644,1.755,3.377,2.909,5.172c0.989,1.538,2.688,3.024,3.879,4.849
			c1.188,1.818,1.991,3.849,3.232,5.818c2.283,3.621,5.373,6.679,7.757,10.021c5.074,7.109,9.002,15.675,14.545,20.363
			c2.538,2.146,5.871,3.91,9.697,6.465c3.074,2.053,7.483,5.75,10.667,5.495c2.373-0.191,5.302-3.222,7.435-4.525
			c4.491-2.745,9.457-2.956,9.374-8.728c-0.23-15.967-17.599-19.959-14.222-40.727c1.691-0.023,2.746-2.075,3.879-1.616
			c0.577,6.219,5.529,9.008,7.757,13.252c0.693,1.319,0.667,2.861,1.293,4.202c2.248,4.817,8.744,13.204,12.929,15.515
			c7.232,3.994,15.724,7.972,26.182,7.111c0.867-0.534,1.161-1.641,1.939-2.263c-0.807-7.963-2.791-15.046-6.788-20.687
			c-0.761-1.074-1.936-1.746-2.586-2.909c-4.834-8.646-6.471-18.953-8.081-30.384c5.326-6.289,10.708,2.029,9.697,9.05
			c4.938,4.76,6.897,12.497,8.728,20.364c3.664,1.243,4.312,4.969,5.818,8.404c1.874,4.273,9.199,14.63,13.576,15.192
			c2.954,0.379,5.775-1.41,9.374-1.293c0.464-2.069,0.85-3.858,2.586-4.849c0.549-0.313,2.539-0.14,3.555-0.646
			c0.508-0.253,0.958-1.55,1.293-1.616c0.725-0.142,1.746,1.383,2.263,0.646c-1.232-12.664,9.141-2.421,14.222-2.586
			c2.748-0.089,5.125-2.699,7.434-3.555c2.324-0.861,4.56-0.506,5.818-2.586c-0.456-24.585-9.128-43.233-17.131-60.121
			c-1.575-3.323-6.942-10.387-1.939-11.637c3.786-0.946,5.253,3.037,7.111,5.818c6.736,10.087,10.404,21.907,14.869,33.616
			c1.672,4.383,2.79,11.345,5.172,14.222c0.812,0.981,1.84,1.349,2.909,2.263c2.417,2.065,4.665,3.482,9.374,3.232
			c0.726-1.537,3.081-1.444,3.232-3.556c0.474-3.278-0.993-7.409-0.97-11.313c3.862-3.853,8.802,0.005,8.727,4.849
			c3.035-0.461,4.138-2.928,6.142-4.525c1.9-1.515,4.965-2.94,7.111-4.848c1.738-1.545,5.439-4.995,5.818-6.465
			c0.85-3.299-0.615-9.154-1.939-12.283c-1.625-3.838-4.167-7.362-5.172-10.99c-0.954-3.446-0.859-6.991-1.939-10.344
			c-2.897-8.993-6.939-19.119-10.667-26.182c-3.99-8.147-2.012-20.365-6.142-28.121c1.205-2.975,5.365-2.82,8.404-1.616
			c1.741,2.764,3.76,5.381,4.525,8.727c1.113,4.868,0.878,10.826,2.263,15.515c0.56,1.895,2.422,3.313,2.909,5.172
			c0.242,0.924-0.165,2.099,0,3.232c0.792,5.447,4.94,11.251,5.172,15.838c0.056,1.104-0.509,2.166-0.323,3.232
			c0.251,1.439,1.694,3.776,2.586,5.818c2.535,5.81,4.584,9.321,6.787,14.545c2.936,0.475,4.875,3.069,7.758,3.556
			c5.162,0.871,8.148-2.987,12.606-5.172c2.932-1.437,6.239-3.587,9.051-4.525c1.642-0.548,1.855-0.839,2.585-1.293
			c0.309-0.192,0.991,0.199,1.293,0c1.57-1.034,3.048-3.013,3.879-4.202c1.511-7.21-2.193-18.756-1.293-23.596
			c0.347-1.86,2.792-4.172,4.525-3.878c2.964,0.501,2.449,5.758,3.556,9.374c1.156,3.78,5.319,10.566,7.758,12.606
			c1.553,1.299,6.471,4.571,8.081,4.849c2.197,0.379,4.455-0.558,6.464-0.646c5.08-0.223,9.906,0.902,16.809,1.293
			c2.371-2.625,4.992-5.392,6.465-10.02c1.289-4.054-0.154-9.303,4.849-8.728c8.394,0.966-1.987,18.07,4.524,22.303
			c13.797,3.649,14.319-12.149,25.859-8.728c-0.658,1.875-2.702,3.164-1.616,5.818c6.332,2.934,6.916-10.351,10.989-10.99
			c2.569-0.403,5.294,2.306,7.111,3.878c6.939-0.58,10.932,2.088,14.869-2.585c1.911-2.27,2.158-8.744,4.525-9.374
			c3.64-0.968,6.648,3.055,5.171,8.081c2.385,0.014,3.519-1.223,5.495-1.616c0.408-3.736,1.509-7.47,4.849-7.435
			c2.378,0.025,2.162,1.886,4.525,2.586c5.892-2.726,11.631-6.546,16.808-9.374c1.863-1.018,4.682-1.246,5.495-3.556
			c-16.071,0.689-31.554-3.213-46.545-3.556c-0.623,4.029-4.844,9.31-6.788,12.606c-1.592,2.698-1.506,4.791-4.202,5.172
			c-7.667,1.084-3.738-7.227-2.586-11.636c1.265-4.838,2.634-9.524,0.323-12.606c-7.776-2.891-14.748-6.586-22.949-9.051
			c-1.034,2.673-1.241,5.343-3.879,5.818c-5.787,1.042-5.096-5.218-4.849-10.344c-4.007-1.38-6.659-4.115-11.313-4.848
			c-0.834,5.262,1.593,15.505-4.848,14.869c-5.963-0.59-1.727-12.462-3.879-17.778c-1.644-0.728-3.453-1.288-5.172-1.939
			c-0.769-0.955-1.171-2.277-1.939-3.232c-5.652-2.32-9.933-6.014-16.485-7.434c0.075,1.865,1.455,2.424,1.293,4.525
			c-1.301,1.466-2.997,3.182-4.849,2.909c-2.282-0.336-2.815-3.905-4.201-6.141c-2.049-3.304-5.148-5.167-6.465-6.788
			c-0.506-1.003-0.846-2.171-1.616-2.909c-13.073-3.965-27.949-11.311-42.344-14.869c-3.957-0.978-11.579-4.207-15.191-3.879
			c-1.328,0.121-2.305,1.271-3.556,1.293c-1.555,0.027-2.616-1.245-4.202-1.616c-3.109-0.728-5.993-0.386-8.728,0.97
			c0.003,4.604-0.808,8.222-4.525,8.081c-2.178-0.083-2.885-3.387-5.495-3.879c-2.984-0.563-4.027,1.111-6.787,1.939
			c-1.671,3.71,1.016,8.423-2.263,10.343c-3.271,1.916-6.413-0.263-7.435-3.879c-3.223-0.009-4.501-1.964-6.465-3.232
			c-5.002,2.788-12.744,7.252-17.777,11.313c-1.268,1.022-3.642,3.428-3.556,5.172c0.139,2.83,3.744,2.934,5.171,5.818
			c1.839,3.715-0.017,7.599-3.555,7.435c-3.506-0.163-4.257-3.841-6.142-5.818c-5.313-5.575-9.23-1.113-13.576,3.232
			c-2.729,2.729-5.563,5.723-7.758,7.434c-3.017,2.354-11.829,6.415-12.283,10.344c-0.354,3.066,2.454,5.674,0.323,8.081
			c-1.263,1.426-4.063,1.505-5.495,0.97c-2.94-1.098-3.308-4.939-5.818-6.788c-2.049-0.174-4.859-0.713-6.788,0
			c-0.171,1.994,1.362,2.155,0.646,3.879c-3.729,4.449-8.828-1.242-13.576-1.616c-0.944,6.2,4.555,10.745,4.849,17.777
			c-2.669,1.733-4.074-0.354-7.758,0c-1.521-2.566-2.748-5.807-4.849-9.05c-1.622-2.505-3.608-6.716-6.141-7.757
			c-2.866-1.179-6.82,0.102-10.99,0c0.903,2.434,1.76,6.762-1.616,7.434c-1.614,0.321-4.882-1.227-7.111-1.939
			c-4.392-1.405-6.54-1.723-10.667-0.97c-2.937,0.536-6.327,0.529-8.081,0.97c-2.457,0.617-4.138,4.037-4.525,5.495
			C261.273,165.445,261.052,173.182,262.142,179.194z M652.93,196.326c-2.723,1.296-5.664,0.796-8.728,2.263
			c-1.191,4.636-6.048,5.003-10.99,5.171c-0.01,2.491,3.038,2.716,3.232,5.172c0.137,1.722-1.178,3.507-2.586,4.849
			c-5.825-1.717-6.776-8.308-14.545-8.081c-1.183,0.542-1.45,1.999-2.263,2.909c1.375,2.019,4.211,5.7,1.616,8.728
			c-6.044,0.914-10.039-2.467-15.192-4.202c-2.076-0.699-3.609-2.292-5.495-2.263c-3.937,0.063-8.238,5.53-10.989,5.495
			c-2.184-0.028-3.397-2.995-4.525-4.202c-7.101,1.83-12.952,2.177-19.071,5.495c-3.097,1.679-11.591,8.485-10.343,13.252
			c0.764,2.917,6.569,3.243,5.818,7.434c-1.077,6.009-9.106-0.041-12.606,0.646c-4.278,0.841-3.76,7.614-5.172,11.636
			c4.875-0.242,7.271,1.996,7.111,6.788c-1.873,2.48-5.714,1.723-9.374,1.293c-0.014,2.067-0.236,2.306-0.323,3.879
			c2.334,1.163,4.409,4.042,7.758,5.818c0.745,0.396,1.896,0.112,2.909,0.646c0.804,0.424,1.332,1.698,2.263,2.263
			c6.107,3.708,13.144,4.254,6.788,10.667c-5.103,0.646-7.587-2.177-11.637-3.556c-6.46-2.2-13.373-2.957-20.687-4.849
			c-1.222,0.503-2.371,1.077-3.556,1.616c-0.553,3.637-3.202,4.871-3.232,8.404c-0.033,3.888,4.986,11.01,7.111,12.93
			c3.009,2.718,8.124,2.296,11.313,4.525c1.103,0.771,1.612,2.556,2.586,3.232c1.11,0.772,2.703,0.724,3.879,1.293
			c3.316,1.605,5.735,3.819,8.728,5.495c4.542,2.543,7.874,4.685,10.666,8.404c-0.98,3.38,10.445,11.053,4.202,14.222
			c-4.449,2.259-7.766-4.631-10.02-6.788c-2.242-2.146-4.541-4.328-6.788-6.464c-1.875-1.782-5.262-3.263-8.081-5.172
			c-2.901-1.965-6.171-4.068-8.728-4.849c-1.726-0.527-3.31-0.249-4.524-0.646c-1.479-0.483-2.407-1.758-3.879-2.263
			c-1.343-0.46-3.111-0.257-4.525-0.646c-1.674-0.461-3.02-1.422-4.525-1.616c-10.436-1.347-15.383,2.438-20.687,6.788
			c-2.233,1.83-6.738,4.745-7.111,8.081c-0.435,3.881,2.584,4.732,1.939,10.02c-4.942,4.417-10.397-1.638-16.485-0.646
			c-3.039,0.495-7.976,3.43-11.313,5.172c-3.808,1.987-7.653,4.268-10.344,6.465c-6.973,5.694-7.618,17.126-3.879,25.858
			c2.056,1.177,3.305,3.16,4.849,4.849c1.104,6.798,6.932,14.002,9.051,20.04c0.548,1.563,0.702,3.552,1.293,5.172
			c0.664,1.824,4.387,9.837,0.646,11.313c-2.277,0.898-2.942-1.45-4.525-1.939c-0.563-3.116-2.36-4.774-3.556-7.111
			c-2.817-5.504-5.284-12.527-9.051-19.07c-1.705-2.964-3.675-5.796-5.495-8.728c-2.069-3.334-2.795-7.235-4.525-9.697
			c-0.597-0.85-2.133-1.98-3.232-3.232c-1.091-1.242-2.191-3.006-2.908-3.556c-4.433-3.396-10.391-2.3-14.546,0.323
			c-2.218,1.4-7.865,5.602-8.404,8.081c-1.127,5.193,2.758,8.448,1.939,14.223c-1.636,1.395-4.927,1.5-6.142,0.646
			c-2.824-1.986-0.807-7.723-2.263-12.283c-0.999-3.131-3.174-3.246-4.202-5.172c-3.976-0.938-6.929,0.924-9.697,1.616
			c-8.456,2.117-17.605,1.398-23.273,5.172c-2.033,3.112,1.381,6.296,0.646,9.051c-0.58,2.176-3.373,2.128-4.525,4.202
			c-3.112-0.63-5.526,1.148-7.111,0.97c-0.328-4.637,1.842-8.141,0.646-12.606c-2.645-2.855-8.761-3.271-12.929-2.586
			c-2.114,0.348-8.465,3.443-9.374,5.172c-2.023,3.849-1.184,10.633-1.939,15.515c-0.581,3.756-1.694,7.901-2.262,11.637
			c-0.345,2.265-0.146,5.147-0.97,6.788c-1.38,2.75-5.154,3.483-6.788,0.97c-0.021-12.646,4.204-27.392,0.97-41.697
			c-2.579-1.168-5.683-2.142-9.05-2.909c-3.309-0.753-7.203-2.387-10.344-1.939c-2.912,0.415-5.126,3.099-8.404,2.586
			c-4.05,3.803-3.795,9.515-6.142,15.516c-4.998,12.783-5.753,30.34-3.232,45.898c-5.672,7.229-6.201-5.852-7.434-11.313
			c-1.132-5.014-0.65-10.35-0.323-17.778c0.154-3.504-0.163-7.048,0-10.02c0.229-4.185,1.932-6.711,2.263-9.697
			c0.119-1.074-0.463-2.364-0.323-3.556c0.588-5,5.556-8.096,4.525-12.93c-0.949-4.451-8.595-4.912-12.606-5.494
			c-4.737-5.04-9.004,2.207-14.222,2.585c-2.885,2.288-5.669,3.938-8.081,6.788c-3.366,3.979-7.8,9.076-9.697,12.93
			c-2.194,4.458-3.116,9.618-6.464,13.575c-1.71-2.628-0.183-6.526,0.646-9.05c2.412-7.34,6.502-14.829,8.404-22.304
			c-3.309,0.381-5.693,2.866-8.404,4.525c-2.756,1.687-6.167,2.652-8.404,4.849c-0.976,0.958-1.259,2.518-2.263,3.556
			c-1.628,1.684-4.801,3.127-7.111,5.172c-2.438,2.158-5.142,4.098-6.788,5.818c-1.126,1.177-1.608,2.639-2.586,3.232
			c-1.012,0.614-2.952,0.776-4.202,1.293c-1.299,0.535-2.239,1.487-3.556,1.292c-1.619-4.187,2.754-7.446,3.556-11.313
			c-3.263-0.139-3.835,2.414-5.172,4.202c-3.112,1.385-8.401,3.387-11.313,7.434c-1.181,1.642-1.344,3.866-2.586,4.849
			c-4.596,3.637-5.97-2.472-5.495-6.142c-2.491,0.639-4.534,0.692-6.788,1.616c-5.942,2.437-12.175,12.989-17.454,5.172
			c-4.854,1.19-9.144,4.077-13.899,5.818c-4.707,1.724-9.826,2.69-13.899,5.495c3.975-0.034,8.274,2.766,12.606,2.263
			c1.213-0.141,2.544-1.322,3.879-1.616c3.851-0.849,8.492,0.169,11.636-0.646c2.88-0.747,4.867-3.72,7.435-3.879
			c0.636,2.377,3.662,3.737,4.202,5.172c-0.646,0.827-1.441,1.862-0.646,3.232c2.996,1.853,8.41,1.286,11.959,2.586
			c4.163-4.103,13.389-2.719,8.728,4.202c6.614,6.579,9.337-3.239,15.838-2.909c4.132,3.237-0.972,7.271-1.939,10.343
			c2.621,1.743,3.728,3.742,6.788,3.232c4.472-0.744,4.259-7.668,9.697-5.818c0.91,0.311,1.816,1.476,1.939,2.586
			c0.491,4.448-5.913,5.275-4.202,10.99c8.225,4.597,16.963,8.681,23.919,14.546c4.889-3.808,6.535-0.479,8.728,2.585
			c1.969,2.753,5.229,4.85,6.464,6.465c0.373,0.382,0.366,1.143,0.323,1.939c5.167,2.375,8.704,6.381,14.545,8.081
			c3.249,1.815,5.494,4.635,9.374,5.818c1.592-3.479-3.74-8.396-1.616-12.283c0.536-0.981,2.879-2.421,5.172-1.939
			c5.82,1.222,2.215,16.155,8.404,20.364c1.356,0.922,3.449,0.697,5.172,1.293c3.167,1.093,4.888,2.932,9.05,1.615
			c1.069,2.595,4.292,3.035,6.465,4.525c5.395-8.703,1.679-22.807,2.909-34.586c0.764-1.391,1.754-2.555,2.585-3.878
			c1.476,0.14,3.56-0.327,4.525,0.323c1.262,9.491-0.735,24.224,4.849,30.384c-0.458,6.047,2.781,8.852,6.142,11.313
			c3.089,2.263,5.25,3.607,10.02,3.556c2.108-3.994,4.003-10.381,4.202-17.131c0.144-4.894-1.217-11.132,3.232-11.637
			c5.796-0.657,3.828,7.897,4.849,12.283c0.342,1.471,1.573,2.791,1.939,4.202c1.388,5.343,1.727,11.188,5.818,13.575
			c8.314-1.21,17.85-0.743,24.242-1.293c2.176-0.187,4.222-1.371,6.465-1.616c5.663-0.619,11.819-0.225,16.484-2.909
			c0.904-9.24,2.423-20.366-0.646-28.121c2.039-2.633-2.813-7.058,0.646-8.404c1.972-0.767,4.49,1.751,4.849,2.586
			c0.591,1.377,0.056,2.846,0.323,4.849c0.628,4.692,3.236,10.497,4.202,15.839c0.714,3.948,0.786,7.414,2.586,9.373
			c5.459,1.934,15.026,1.497,20.687-0.323c3.039-2.133,3.874-6.47,5.172-10.343c-1.183-2.617-2.101-8.943,1.616-9.374
			c2.813-0.326,5.255,3.881,7.111,7.435c1.842,3.525,4.007,5.931,7.435,6.788c18.697-6.785,38.696-10.27,54.626-19.718
			c0.718-5.618,3.889-2.459,6.788-5.818c2.017-2.337,2.987-9.747,2.586-12.282c-0.307-1.937-1.936-2.624-1.616-4.202
			c0.273-1.353,1.843-2.356,3.232-2.263c3.629,0.246,2.937,6.331,7.11,6.788c3.687-2.563,8.301-4.198,11.637-7.111
			c-2.735-2.006-4.438-5.044-5.172-9.051c1.015-1.248,3.117-1.408,3.556-3.232c1.83-5.931-3.3-7.644-4.525-11.313
			c-0.592-1.774,0.096-3.417-0.323-5.495c-0.335-1.662-2.115-3.074-1.939-5.172c0.963-2.135,4.17-1.548,6.465-0.97
			c3.186,6.188,5.645,13.104,10.344,17.778c0.056,3.644,3.618,6.381,8.08,5.817c3.411-0.431,5.585-4.872,8.081-7.757
			c9.479-10.953,18.88-23.558,26.182-36.849c3.541-6.443,8.816-17.137,5.818-23.92c-1.396-3.157-5.346-2.724-4.525-6.464
			c0.352-1.604,1.807-2.188,3.232-2.263c3.798-0.198,6.07,4.505,8.404,4.525c5.933-4.828-9.722-20.958-0.646-21.657
			c3.493-0.269,4.816,3.037,6.465,4.525c3.518-5.784-0.255-10.204-1.939-16.808c-2.638-10.343-7.066-17.548-14.223-21.98
			c-2.188-1.921-6.628-1.936-6.787-5.172c-0.122-2.466,3.577-4.434,5.817-4.202c2.124,0.22,3.262,2.387,4.849,3.556
			c1.908,1.405,3.894,2.161,5.818,3.879c1.68,1.499,3.471,3.063,5.172,4.848c3.72,3.902,6.141,8.226,9.051,10.667
			c2.131-9.919,5.466-18.071,0.97-26.182c-1.934-3.487-7.914-5.082-8.728-8.081c-0.798-2.938,0.561-6.43,2.909-7.435
			c3.411,1.545,7.296,2.617,11.636,3.232c1.207-2.564,2.324-5.218,3.556-7.757c-1.807-1.824-4.956-3.153-4.849-5.495
			c0.109-2.356,2.968-2.638,4.525-4.849c0.708-1.004,0.916-3.002,1.939-4.525c1.794-2.668,5.28-6.357,5.172-10.021
			c-0.159-5.365-7.264-8.354-6.788-11.959c0.613-4.638,7.481-1.499,9.697-0.97c2.222-6.165-2.022-8.834-1.293-13.252
			c1.835-1.854,4.493-1.451,6.465-2.586c2.39-1.375,2.942-4.479,5.495-5.495c1.47-5.21,4.732-8.628,6.787-13.252
			C655.711,189.858,655.949,194.888,652.93,196.326z"/>
	</g>
</g>
</svg>
